<svg xmlns:xlink="http://www.w3.org/1999/xlink" xmlns="http://www.w3.org/2000/svg" viewBox="0 0 24 24" aria-hidden="true" class="r-4qtqp9 r-yyyyoo r-dnmrzs r-bnwqim r-1plcrui r-lrvibr r-18yzcnr r-yc9v9c" style="color: rgb(15, 20, 25);" width="24"  height="24" ><g fill="#0F1419"><path d="M12 21c-7.605 0-10.804-8.296-10.937-8.648L.932 12l.131-.352C1.196 11.295 4.394 3 12 3s10.804 8.296 10.937 8.648l.131.352-.131.352C22.804 12.705 19.606 21 12 21zm-8.915-9c.658 1.467 3.5 7 8.915 7s8.257-5.533 8.915-7c-.658-1.467-3.5-7-8.915-7s-8.257 5.533-8.915 7zM12 16c-2.206 0-4-1.794-4-4s1.794-4 4-4 4 1.794 4 4-1.794 4-4 4zm0-6c-1.103 0-2 .897-2 2s.897 2 2 2 2-.897 2-2-.897-2-2-2z" fill="#0F1419"></path></g></svg>