<svg xmlns="http://www.w3.org/2000/svg" width="981.333" height="904" version="1.0" viewBox="0 0 736 678"><path d="M0 339v339h736V0H0v339zm296-204.9c66 87.3 88.2 116.4 88.9 116.7.5.2 14.8-15.4 31.7-34.5 17-19.1 46.5-52.5 65.7-74.1l34.9-39.2h39.9c21.9 0 39.9.2 39.9.5s-33.5 38.6-145.4 165.8c-14.9 17-27.2 31.4-27.4 32.1-.1.6 9.4 14 21.3 29.6 11.8 15.7 29.3 38.8 38.9 51.5 9.5 12.6 36.4 48.2 59.7 79 23.4 30.8 52.2 68.9 64.2 84.7l21.8 28.8H467.5L456 559.9c-15.1-19.9-77.7-101.6-98.8-129.2L340.5 409l-4.5 5.2c-2.5 2.9-27.2 31.1-55 62.8-27.8 31.7-58.4 66.7-68 77.8l-17.5 20.1-40.4.1c-38.4 0-40.3-.1-38.9-1.8 3.2-3.8 36.8-42.5 61.8-71.2 14.6-16.8 47.7-54.8 73.5-84.5 25.7-29.7 47.6-54.9 48.6-56 2-2.3 6 3.5-32.5-46.9-25.1-32.9-94.1-123.2-127.6-167.1-11.7-15.4-24.2-31.7-27.7-36.3l-6.5-8.2h166.7l23.5 31.1z"/><path d="M199 145.9c0 .2 5.9 7.9 13 17.2 7.2 9.3 18.9 24.7 26.2 34.1 7.3 9.5 20.5 26.7 29.3 38.3 8.9 11.5 25.1 32.7 36 47 22.1 28.9 61.7 80.6 73.5 96 4.2 5.5 13 17 19.6 25.6 6.5 8.5 30.6 39.9 53.4 69.7l41.5 54.2h22.4c17.7 0 22.1-.3 21.4-1.3-.6-.6-21.4-28.2-46.4-61.2-24.9-33-57.6-76.2-72.7-96-15-19.8-39.1-51.8-53.7-71-14.6-19.3-46.4-61.3-70.8-93.5l-44.4-58.5-24.1-.5c-13.3-.3-24.2-.3-24.2-.1z"/></svg>