<?xml version="1.0" standalone="no"?>
<!DOCTYPE svg PUBLIC "-//W3C//DTD SVG 20010904//EN"
 "http://www.w3.org/TR/2001/REC-SVG-20010904/DTD/svg10.dtd">
<svg version="1.0" xmlns="http://www.w3.org/2000/svg"
 width="736.000000pt" height="678.000000pt" viewBox="0 0 736.000000 678.000000"
 preserveAspectRatio="xMidYMid meet">

<g transform="translate(0.000000,678.000000) scale(0.100000,-0.100000)"
fill="#000000" stroke="none">
<path d="M0 3390 l0 -3390 3680 0 3680 0 0 3390 0 3390 -3680 0 -3680 0 0
-3390z m2960 2049 c660 -873 882 -1164 889 -1167 5 -2 148 154 317 345 170
191 465 525 657 741 l349 392 399 0 c219 0 399 -2 399 -5 0 -3 -335 -386
-1454 -1658 -149 -170 -272 -314 -274 -321 -1 -6 94 -140 213 -296 118 -157
293 -388 389 -515 95 -126 364 -482 597 -790 234 -308 522 -689 642 -847 l218
-288 -813 0 -813 0 -115 151 c-151 199 -777 1016 -988 1292 l-167 217 -45 -52
c-25 -29 -272 -311 -550 -628 -278 -317 -584 -667 -680 -778 l-175 -201 -404
-1 c-384 0 -403 1 -389 18 32 38 368 425 618 712 146 168 477 548 735 845 257
297 476 549 486 560 20 23 60 -35 -325 469 -251 329 -941 1232 -1276 1671
-117 154 -242 317 -277 363 l-65 82 834 0 833 0 235 -311z"/>
<path d="M1990 5321 c0 -2 59 -79 130 -172 72 -93 189 -247 262 -341 73 -95
205 -267 293 -383 89 -115 251 -327 360 -470 221 -289 617 -806 735 -960 42
-55 130 -170 196 -256 65 -85 306 -399 534 -697 l415 -542 224 0 c177 0 221 3
214 13 -6 6 -214 282 -464 612 -249 330 -576 762 -727 960 -150 198 -391 518
-537 710 -146 193 -464 613 -708 935 l-444 585 -241 5 c-133 3 -242 3 -242 1z"/>
</g>
</svg>
